<?xml version="1.0" encoding="UTF-8" standalone="no"?>
<!-- Generator: Adobe Illustrator 16.0.0, SVG Export Plug-In . SVG Version: 6.00 Build 0)  -->

<svg
   xmlns:dc="http://purl.org/dc/elements/1.1/"
   xmlns:cc="http://creativecommons.org/ns#"
   xmlns:rdf="http://www.w3.org/1999/02/22-rdf-syntax-ns#"
   xmlns:svg="http://www.w3.org/2000/svg"
   xmlns="http://www.w3.org/2000/svg"
   xmlns:sodipodi="http://sodipodi.sourceforge.net/DTD/sodipodi-0.dtd"
   xmlns:inkscape="http://www.inkscape.org/namespaces/inkscape"
   version="1.1"
   id="Layer_1"
   x="0px"
   y="0px"
   width="348px"
   height="306.14px"
   viewBox="0 0 348 306.14"
   enable-background="new 0 0 348 306.14"
   xml:space="preserve"
   sodipodi:docname="logo.svg"
   inkscape:version="0.92.3 (2405546, 2018-03-11)"><metadata
   id="metadata3825"><rdf:RDF><cc:Work
       rdf:about=""><dc:format>image/svg+xml</dc:format><dc:type
         rdf:resource="http://purl.org/dc/dcmitype/StillImage" /></cc:Work></rdf:RDF></metadata><defs
   id="defs3823" /><sodipodi:namedview
   pagecolor="#ffffff"
   bordercolor="#666666"
   borderopacity="1"
   objecttolerance="10"
   gridtolerance="10"
   guidetolerance="10"
   inkscape:pageopacity="0"
   inkscape:pageshadow="2"
   inkscape:window-width="1920"
   inkscape:window-height="1001"
   id="namedview3821"
   showgrid="false"
   inkscape:zoom="2.6393152"
   inkscape:cx="174"
   inkscape:cy="153.07001"
   inkscape:window-x="-9"
   inkscape:window-y="-9"
   inkscape:window-maximized="1"
   inkscape:current-layer="Layer_1" />
<g
   id="g3782"
   transform="matrix(-1,0,0,1,343.778,0)">
	<g
   id="g3774">
		<g
   id="g3772">
			<path
   d="m 310.103,274.08 v -5.697 -16.21 h -21.906 v -21.024 -0.879 h -21.898 -25.193 -108.86 v -21.465 h -21.9 v -82.791 -6.135 -20.588 -1.318 -6.78 -15.12 -21.907 h 10.949 V 32.265 10.358 h -21.907 -21.9 v 21.906 21.901 h 10.951 v 21.906 15.12 6.78 H 66.535 44.63 V 76.071 54.166 H 55.585 V 32.265 10.358 H 33.675 11.773 v 21.906 21.901 h 10.951 v 21.906 21.9 1.318 1.662 12.349 6.577 88.926 21.465 0.441 21.462 H 44.63 v 21.907 h 21.904 v 21.9 h 223.635 19.934 21.902 v -21.9 H 310.103 Z M 22.724,43.215 v -21.9 H 44.63 v 21.9 z m 65.715,98.57 H 44.63 v -21.906 h 43.809 z m 0,-120.471 h 21.906 v 21.9 H 88.439 Z"
   id="path3770"
   inkscape:connector-curvature="0"
   style="fill:#597936" />
		</g>
	</g>
	<g
   id="g3780">
		<g
   id="g3778">
			<polygon
   points="265.404,170.691 169.935,170.691 169.935,112.43 231.91,112.43 231.91,140.906 217.017,140.906 217.017,127.322 184.828,127.322 184.828,155.799 265.404,155.799 265.404,144.412 265.404,143.094 265.404,122.51 265.404,100.604 243.519,100.604 243.519,78.701 154.923,78.701 154.923,100.604 133.011,100.604 133.011,122.51 133.011,143.094 133.011,144.412 133.011,165.001 133.011,186.906 154.923,186.906 154.923,208.805 243.519,208.805 265.404,208.805 287.308,208.805 287.308,186.906 265.404,186.906 "
   id="polygon3776"
   style="fill:#5d432e" />
		</g>
	</g>
</g>
<g
   id="g3786"
   transform="matrix(-1,0,0,1,343.778,0)">
	<polygon
   points="133,252 67,252 67,231 44.63,231 23,231 23,252 45,252 45,274 67,274 67,296 332,296 332,274 133,274 "
   id="polygon3784"
   style="fill:#44602d" />
</g>
<g
   id="g3800"
   transform="matrix(-1,0,0,1,343.778,0)">
	<g
   id="g3790">
		<rect
   x="155"
   y="187"
   width="132"
   height="22"
   id="rect3788"
   style="fill:#4a2e18" />
	</g>
	<g
   id="g3794">
		<rect
   x="133"
   y="101"
   width="22"
   height="86"
   id="rect3792"
   style="fill:#4a2e18" />
	</g>
	<g
   id="g3798">
		<polygon
   points="265,140.875 265,124 248,124 248,141 232,141 232,156 265,156 265,144.152 "
   id="polygon3796"
   style="fill:#4a2e18" />
	</g>
</g>
<g
   id="g3804"
   transform="matrix(-1,0,0,1,343.778,0)">
	<polygon
   points="133,252 67,252 67,231 44.63,231 23,231 23,252 45,252 45,274 67,274 67,296 332,296 332,274 133,274 "
   id="polygon3802"
   style="fill:#44602d" />
</g>
<g
   id="g3818"
   transform="matrix(-1,0,0,1,343.778,0)">
	<g
   id="g3808">
		<rect
   x="155"
   y="187"
   width="132"
   height="22"
   id="rect3806"
   style="fill:#4a2e18" />
	</g>
	<g
   id="g3812">
		<rect
   x="133"
   y="101"
   width="22"
   height="86"
   id="rect3810"
   style="fill:#4a2e18" />
	</g>
	<g
   id="g3816">
		<polygon
   points="265,140.875 265,124 248,124 248,141 232,141 232,156 265,156 265,144.152 "
   id="polygon3814"
   style="fill:#4a2e18" />
	</g>
</g>
</svg>